<svg width="186" height="41" viewBox="0 0 186 41" fill="none" xmlns="http://www.w3.org/2000/svg">
<path fill-rule="evenodd" clip-rule="evenodd" d="M7.02633 0.117333C3.47794 0.544113 0.905339 3.09191 0.206679 6.36032C-0.126612 7.91957 0.0433134 10.9217 0.0433134 12.6589L0.0428359 32.2078C0.0526141 36.1785 2.44516 38.9512 5.41139 39.9262C7.24885 40.5303 9.43438 40.3466 11.4536 40.3466H50.5517C52.4802 40.3466 55.2029 40.5032 57.039 40.2829C60.524 39.8649 63.1074 37.2502 63.7933 34.038C64.1265 32.4777 63.9568 29.4776 63.9568 27.7395L63.9573 8.1905C63.9475 4.21938 61.5542 1.4468 58.5885 0.472205C56.7505 -0.131774 54.566 0.0516253 52.5465 0.0516253H13.4483C11.5332 0.0516253 8.8372 -0.10041 7.02633 0.117333Z" fill="#EC1E25"/>
<path fill-rule="evenodd" clip-rule="evenodd" d="M24.3382 26.9465C24.3422 27.434 24.3433 27.2342 24.3586 27.7162C24.383 27.9705 24.3667 27.8769 24.3791 27.9445C24.4483 28.3187 24.6451 28.7128 24.9911 28.9949C25.1927 29.1339 25.5124 29.3822 26.1578 29.3779C26.5181 29.3553 26.9325 29.2472 27.2927 28.9213C27.5443 28.6328 27.7915 28.4303 27.8577 27.7168L27.8764 26.9465C27.8693 26.2185 27.8764 21.3407 27.8764 19.5461C28.9981 19.5461 31.2832 19.5461 32.4794 19.5446C33.288 19.5437 33.7544 19.5921 34.3085 19.1206C34.7461 18.7174 34.9422 18.2242 34.9353 17.7481C34.9261 17.1269 34.5704 16.5344 33.9515 16.2086C33.5999 16.0313 33.3553 16.0238 32.9724 16.0252C32.5936 16.0264 32.1768 16.031 31.7653 16.031C30.2197 16.0302 28.7488 16.0271 27.2034 16.031C26.0584 16.0109 25.5967 15.9627 24.9833 16.4557C24.6816 16.6984 24.4258 17.0521 24.3616 17.6763C24.3458 19.0777 24.33 26.5021 24.3382 26.9465Z" fill="white"/>
<path fill-rule="evenodd" clip-rule="evenodd" d="M50.5925 14.0485C52.9433 14.0575 52.9408 10.539 50.6094 10.5323L42.6022 10.5156C40.223 10.5121 40.1855 14.0342 42.5716 14.0433C44.6088 14.0566 48.5561 14.0406 50.5925 14.0485Z" fill="white"/>
<path fill-rule="evenodd" clip-rule="evenodd" d="M14.9236 14.0645C21.164 14.0645 25.078 14.0564 31.317 14.0665C31.5647 14.0671 31.8165 14.0672 32.0698 14.0672C32.3232 14.0672 32.5785 14.0672 32.8328 14.0672C33.0873 14.0672 33.3364 14.0783 33.5862 14.1004C33.8371 14.1223 34.1075 14.1955 34.3395 14.2642C34.5891 14.3379 34.7454 14.4268 34.9716 14.5438C35.1839 14.6534 35.3866 14.8019 35.5512 14.9481C35.805 15.1734 35.8972 15.2636 36.0239 15.4333C36.19 15.6556 36.1734 15.6248 36.2874 15.8047C36.3922 15.9701 36.5023 16.1941 36.5801 16.3882C36.6582 16.5825 36.6893 16.6875 36.7362 16.8893C36.7833 17.0908 36.7885 17.1588 36.813 17.3511C36.8387 17.5538 36.8291 17.5903 36.8285 17.8661C36.8176 18.0408 36.8133 18.101 36.8043 18.1657C36.7965 18.2223 36.7891 18.2806 36.7664 18.4085C36.7211 18.664 36.6897 18.727 36.6312 18.9137C36.5724 19.1003 36.4151 19.4143 36.3436 19.5415C36.2719 19.6689 36.2064 19.7818 36.136 19.8604C35.9714 20.0438 35.957 20.0783 35.9009 20.1509C35.845 20.2234 35.7655 20.2874 35.7378 20.321C35.71 20.3548 35.673 20.389 35.5927 20.4557C35.5125 20.5226 35.5481 20.4906 35.3346 20.6627C35.2818 20.7004 35.2063 20.7539 35.1438 20.7928C35.0883 20.8275 34.9799 20.9031 34.8749 20.9483C34.7663 20.9951 34.7023 21.0478 34.5161 21.1118C34.2303 21.21 34.2006 21.2298 33.8875 21.2938C33.7879 21.3144 33.682 21.329 33.5731 21.3394C33.4643 21.3501 33.352 21.3568 33.2398 21.3615C33.1276 21.3662 33.0151 21.369 32.9055 21.3717C32.7958 21.3747 32.6886 21.3776 32.5874 21.3823C32.0414 21.4086 31.6388 21.5766 31.3556 21.8231C31.0727 22.0695 30.9083 22.3947 30.8392 22.7349C30.8047 22.9051 30.7936 23.0791 30.8032 23.2489C30.8129 23.4187 30.843 23.5844 30.8907 23.7381C30.9383 23.8916 31.0302 24.0397 31.1071 24.159C31.1842 24.2781 31.2363 24.3583 31.3624 24.4529C33.3836 25.9674 35.4813 27.5744 37.5361 29.0096C37.7764 29.1775 37.7155 29.1497 37.9388 29.2407C38.174 29.3366 38.4264 29.3624 38.5637 29.3711C38.8174 29.3873 39.0947 29.3149 39.2769 29.2401C39.4621 29.1641 39.6362 29.0505 39.7746 28.9302C39.9132 28.8099 40.0019 28.7063 40.1247 28.5082C40.2418 28.3194 40.3194 28.1127 40.3665 27.8216C40.3866 27.6972 40.3663 27.5149 40.3593 27.3959C40.3508 27.2518 40.2925 27.0829 40.2468 26.9538C40.2026 26.8292 40.1166 26.6583 40.0058 26.5315C39.9001 26.4098 39.9393 26.4441 39.7781 26.287C39.7769 26.2857 39.7017 26.2192 39.6147 26.1585C38.5671 25.4285 37.6022 24.6266 36.5794 23.8855C36.5109 23.8358 36.6598 23.8003 36.7897 23.7276C36.8302 23.705 36.9354 23.6314 36.9994 23.602C37.0633 23.5725 37.0679 23.5509 37.146 23.5081C37.2239 23.4652 37.3195 23.3871 37.4044 23.3298C37.4893 23.2726 37.5005 23.2619 37.5929 23.1884C37.6802 23.119 37.7411 23.0695 37.8277 22.9986C37.9143 22.9275 37.9076 22.9305 37.986 22.8606C38.0662 22.7894 38.1927 22.6655 38.2627 22.5986C38.3346 22.5299 38.3588 22.4998 38.4163 22.4406C38.4722 22.3832 38.4988 22.3536 38.5504 22.294C38.6054 22.2352 38.6184 22.2144 38.6691 22.1573C38.7194 22.1007 38.7408 22.0695 38.7883 22.0123C38.836 21.9554 38.871 21.9103 38.9139 21.851C38.9567 21.7916 39.0029 21.7385 39.0414 21.6769C39.0798 21.6153 39.0998 21.5985 39.138 21.5371C39.1791 21.4709 39.2394 21.3892 39.2744 21.3265C39.3097 21.2636 39.3518 21.2036 39.3862 21.141C39.4542 21.0178 39.4751 20.9813 39.5406 20.8605C39.6043 20.7432 39.6296 20.7026 39.6803 20.5781C39.7318 20.4519 39.7644 20.4106 39.8117 20.2788C39.8588 20.1478 39.865 20.15 39.9153 20.0201C39.973 19.8773 39.9895 19.7997 40.0405 19.6356C40.0956 19.4589 40.0932 19.4577 40.1382 19.278C40.1783 19.1179 40.1935 19.0343 40.2204 18.8988C40.2708 18.6453 40.3072 18.4403 40.3204 18.3534C40.349 18.1687 40.3471 18.0928 40.3512 17.9378C40.3544 17.8122 40.3505 17.5922 40.3407 17.4428C40.3309 17.2932 40.3318 17.1349 40.3161 16.9744C40.3002 16.8139 40.267 16.5784 40.2468 16.4205C40.2269 16.2628 40.1976 16.1361 40.1598 15.9807C40.1219 15.8255 40.0702 15.6261 40.0226 15.4748C39.9751 15.3236 39.8991 15.1147 39.8442 14.9706C39.7896 14.8273 39.7685 14.7845 39.7099 14.6547C39.6492 14.5201 39.6101 14.4533 39.5509 14.3405C39.495 14.234 39.4717 14.1887 39.4195 14.0862C39.367 13.9835 39.3193 13.9215 39.2589 13.8176C39.1983 13.7139 39.1597 13.6785 39.0894 13.5608C39.019 13.4428 39.0069 13.458 38.9428 13.3565C38.8787 13.2548 38.8484 13.2445 38.7882 13.1563C38.7281 13.0682 38.725 13.0862 38.6663 13.0083C38.6077 12.9307 38.5735 12.9042 38.5136 12.8338C38.4535 12.7634 38.3841 12.7009 38.314 12.6219C38.2436 12.5428 38.195 12.5047 38.1105 12.4227C38.0264 12.3405 38.0572 12.3651 37.9703 12.2944C37.9487 12.2767 37.871 12.2042 37.8453 12.1854C37.8196 12.1666 37.7532 12.1036 37.722 12.0831C37.6912 12.0624 37.6357 12.0076 37.5975 11.984C37.5597 11.9607 37.4968 11.8996 37.4504 11.8727C37.4038 11.8459 37.3809 11.8179 37.3248 11.7827C37.254 11.738 37.2025 11.6968 37.1357 11.6541C37.0626 11.6074 37.0396 11.5886 36.9664 11.5466C36.8664 11.4894 36.8214 11.4578 36.7399 11.4147C36.6573 11.3709 36.627 11.3759 36.5468 11.3292C36.4608 11.2792 36.3874 11.2447 36.2945 11.2019C36.1912 11.154 36.1221 11.1116 36.0282 11.0708C35.9427 11.0338 35.839 10.9932 35.7596 10.9554C35.601 10.8799 35.5354 10.8633 35.2952 10.7864C35.2082 10.7585 35.0464 10.7063 34.9118 10.6768C34.8102 10.6545 34.7529 10.6372 34.5918 10.6068C34.4024 10.5772 34.3581 10.5561 34.0213 10.5489C33.8359 10.5449 33.6126 10.5425 33.425 10.5422C32.6743 10.5406 31.9366 10.5422 31.2229 10.5408C31.2229 10.5408 15.3346 10.5208 14.9545 10.5347C14.3586 10.5369 13.8713 10.5275 13.472 10.5513C13.0581 10.5757 12.7394 10.7318 12.4854 10.9505C11.5993 11.7123 11.6334 13.2508 12.7681 13.8559C12.9601 13.9583 13.1983 14.0443 13.4539 14.058C13.9015 14.0816 14.4161 14.0647 14.9236 14.0645Z" fill="white"/>
<path fill-rule="evenodd" clip-rule="evenodd" d="M22.4968 26.9284C22.4926 27.4161 22.4916 27.2161 22.4763 27.6982C22.452 27.9525 22.4682 27.8589 22.4557 27.9266C22.3866 28.3008 22.1898 28.6948 21.8437 28.9768C21.6422 29.1158 21.3226 29.3641 20.6773 29.3598C20.3168 29.3373 19.9024 29.2291 19.5422 28.9031C19.2905 28.6148 19.0435 28.4123 18.9772 27.6986L18.9586 26.9284C18.9657 26.2004 18.9586 21.3228 18.9586 19.5279C17.8367 19.5279 15.5518 19.5279 14.3556 19.5266C13.547 19.5256 13.0804 19.574 12.5265 19.1027C12.0887 18.6994 11.8928 18.2062 11.8996 17.73C11.9089 17.1089 12.2646 16.5165 12.8834 16.1907C13.2351 16.0132 13.4796 16.0057 13.8626 16.0072C14.2413 16.0084 14.6581 16.0129 15.0697 16.0129C16.6152 16.0121 18.086 16.0092 19.6316 16.0129C20.7763 15.9929 21.2383 15.9447 21.8516 16.4376C22.1534 16.6803 22.4091 17.034 22.4734 17.6582C22.489 19.0596 22.5049 26.4841 22.4968 26.9284Z" fill="white"/>
<path fill-rule="evenodd" clip-rule="evenodd" d="M50.6399 21.7205C52.9912 21.7295 52.9882 18.2111 50.6568 18.2045L43.8484 18.1899C41.4691 18.1866 41.4315 21.7088 43.8176 21.7178C45.8548 21.7312 48.6036 21.7125 50.6399 21.7205Z" fill="white"/>
<path fill-rule="evenodd" clip-rule="evenodd" d="M50.6643 29.3642C53.0156 29.3735 53.0127 25.855 50.6812 25.8483L44.0095 25.8384C41.6302 25.8348 41.5927 29.3571 43.9788 29.3663C46.016 29.3794 48.6277 29.3564 50.6643 29.3642Z" fill="white"/>
<path d="M83.0312 9.98047V14.4883C82.8542 14.7018 82.5807 14.9336 82.2109 15.1836C81.8411 15.4284 81.3646 15.6393 80.7812 15.8164C80.1979 15.9935 79.4922 16.082 78.6641 16.082C77.9297 16.082 77.2604 15.9622 76.6562 15.7227C76.0521 15.4779 75.5312 15.1211 75.0938 14.6523C74.6615 14.1836 74.3281 13.6107 74.0938 12.9336C73.8594 12.2513 73.7422 11.4727 73.7422 10.5977V9.88672C73.7422 9.01172 73.8542 8.23307 74.0781 7.55078C74.3073 6.86849 74.6328 6.29297 75.0547 5.82422C75.4766 5.35547 75.9792 4.9987 76.5625 4.75391C77.1458 4.50911 77.7943 4.38672 78.5078 4.38672C79.4974 4.38672 80.3099 4.54818 80.9453 4.87109C81.5807 5.1888 82.0651 5.63151 82.3984 6.19922C82.737 6.76172 82.9453 7.40755 83.0234 8.13672H80.75C80.6927 7.7513 80.5833 7.41536 80.4219 7.12891C80.2604 6.84245 80.0286 6.61849 79.7266 6.45703C79.4297 6.29557 79.0443 6.21484 78.5703 6.21484C78.1797 6.21484 77.8307 6.29557 77.5234 6.45703C77.2214 6.61328 76.9661 6.84505 76.7578 7.15234C76.5495 7.45964 76.3906 7.83984 76.2812 8.29297C76.1719 8.74609 76.1172 9.27214 76.1172 9.87109V10.5977C76.1172 11.1914 76.1745 11.7174 76.2891 12.1758C76.4036 12.6289 76.5729 13.0117 76.7969 13.3242C77.026 13.6315 77.3073 13.8633 77.6406 14.0195C77.974 14.1758 78.362 14.2539 78.8047 14.2539C79.1745 14.2539 79.4818 14.2227 79.7266 14.1602C79.9766 14.0977 80.1771 14.0221 80.3281 13.9336C80.4844 13.8398 80.6042 13.7513 80.6875 13.668V11.6523H78.5469V9.98047H83.0312ZM88.6719 16.082C88.0156 16.082 87.4271 15.9779 86.9062 15.7695C86.3854 15.556 85.9427 15.2617 85.5781 14.8867C85.2188 14.5117 84.9427 14.0768 84.75 13.582C84.5573 13.082 84.4609 12.5508 84.4609 11.9883V11.6758C84.4609 11.0352 84.5521 10.4492 84.7344 9.91797C84.9167 9.38672 85.1771 8.92578 85.5156 8.53516C85.8594 8.14453 86.276 7.84505 86.7656 7.63672C87.2552 7.42318 87.8073 7.31641 88.4219 7.31641C89.0208 7.31641 89.5521 7.41536 90.0156 7.61328C90.4792 7.8112 90.8672 8.09245 91.1797 8.45703C91.4974 8.82161 91.737 9.25911 91.8984 9.76953C92.0599 10.2747 92.1406 10.8372 92.1406 11.457V12.3945H85.4219V10.8945H89.9297V10.7227C89.9297 10.4102 89.8724 10.1315 89.7578 9.88672C89.6484 9.63672 89.4818 9.4388 89.2578 9.29297C89.0339 9.14714 88.7474 9.07422 88.3984 9.07422C88.1016 9.07422 87.8464 9.13932 87.6328 9.26953C87.4193 9.39974 87.2448 9.58203 87.1094 9.81641C86.9792 10.0508 86.8802 10.3268 86.8125 10.6445C86.75 10.957 86.7188 11.3008 86.7188 11.6758V11.9883C86.7188 12.3268 86.7656 12.6393 86.8594 12.9258C86.9583 13.2122 87.0964 13.4596 87.2734 13.668C87.4557 13.8763 87.6745 14.0378 87.9297 14.1523C88.1901 14.2669 88.4844 14.3242 88.8125 14.3242C89.2188 14.3242 89.5964 14.2461 89.9453 14.0898C90.2995 13.9284 90.6042 13.6862 90.8594 13.3633L91.9531 14.5508C91.776 14.806 91.5339 15.0508 91.2266 15.2852C90.9245 15.5195 90.5599 15.7122 90.1328 15.8633C89.7057 16.0091 89.2188 16.082 88.6719 16.082ZM93.0625 11.7852V11.6211C93.0625 11.0013 93.151 10.431 93.3281 9.91016C93.5052 9.38411 93.763 8.92839 94.1016 8.54297C94.4401 8.15755 94.8568 7.85807 95.3516 7.64453C95.8464 7.42578 96.4141 7.31641 97.0547 7.31641C97.6953 7.31641 98.2656 7.42578 98.7656 7.64453C99.2656 7.85807 99.6849 8.15755 100.023 8.54297C100.367 8.92839 100.628 9.38411 100.805 9.91016C100.982 10.431 101.07 11.0013 101.07 11.6211V11.7852C101.07 12.3997 100.982 12.9701 100.805 13.4961C100.628 14.0169 100.367 14.4727 100.023 14.8633C99.6849 15.2487 99.2682 15.5482 98.7734 15.7617C98.2786 15.9753 97.7109 16.082 97.0703 16.082C96.4297 16.082 95.8594 15.9753 95.3594 15.7617C94.8646 15.5482 94.4453 15.2487 94.1016 14.8633C93.763 14.4727 93.5052 14.0169 93.3281 13.4961C93.151 12.9701 93.0625 12.3997 93.0625 11.7852ZM95.3125 11.6211V11.7852C95.3125 12.1393 95.3438 12.4701 95.4062 12.7773C95.4688 13.0846 95.5677 13.3555 95.7031 13.5898C95.8438 13.819 96.026 13.9987 96.25 14.1289C96.474 14.2591 96.7474 14.3242 97.0703 14.3242C97.3828 14.3242 97.651 14.2591 97.875 14.1289C98.099 13.9987 98.2786 13.819 98.4141 13.5898C98.5495 13.3555 98.6484 13.0846 98.7109 12.7773C98.7786 12.4701 98.8125 12.1393 98.8125 11.7852V11.6211C98.8125 11.2773 98.7786 10.9544 98.7109 10.6523C98.6484 10.3451 98.5469 10.0742 98.4062 9.83984C98.2708 9.60026 98.0911 9.41276 97.8672 9.27734C97.6432 9.14193 97.3724 9.07422 97.0547 9.07422C96.737 9.07422 96.4661 9.14193 96.2422 9.27734C96.0234 9.41276 95.8438 9.60026 95.7031 9.83984C95.5677 10.0742 95.4688 10.3451 95.4062 10.6523C95.3438 10.9544 95.3125 11.2773 95.3125 11.6211ZM104.703 9.31641V15.9258H102.453V7.47266H104.57L104.703 9.31641ZM107.25 7.41797L107.211 9.50391C107.102 9.48828 106.969 9.47526 106.812 9.46484C106.661 9.44922 106.523 9.44141 106.398 9.44141C106.081 9.44141 105.805 9.48307 105.57 9.56641C105.341 9.64453 105.148 9.76172 104.992 9.91797C104.841 10.0742 104.727 10.2643 104.648 10.4883C104.576 10.7122 104.534 10.9674 104.523 11.2539L104.07 11.1133C104.07 10.5664 104.125 10.0638 104.234 9.60547C104.344 9.14193 104.503 8.73828 104.711 8.39453C104.924 8.05078 105.185 7.78516 105.492 7.59766C105.799 7.41016 106.151 7.31641 106.547 7.31641C106.672 7.31641 106.799 7.32682 106.93 7.34766C107.06 7.36328 107.167 7.38672 107.25 7.41797ZM113.508 7.47266H115.547V15.6445C115.547 16.4154 115.375 17.069 115.031 17.6055C114.693 18.1471 114.219 18.556 113.609 18.832C113 19.1133 112.292 19.2539 111.484 19.2539C111.13 19.2539 110.755 19.207 110.359 19.1133C109.969 19.0195 109.594 18.8737 109.234 18.6758C108.88 18.4779 108.583 18.2279 108.344 17.9258L109.336 16.5977C109.596 16.8997 109.898 17.1341 110.242 17.3008C110.586 17.4727 110.966 17.5586 111.383 17.5586C111.789 17.5586 112.133 17.4831 112.414 17.332C112.695 17.1862 112.911 16.9701 113.062 16.6836C113.214 16.4023 113.289 16.0612 113.289 15.6602V9.42578L113.508 7.47266ZM107.82 11.8008V11.6367C107.82 10.9909 107.898 10.4049 108.055 9.87891C108.216 9.34766 108.443 8.89193 108.734 8.51172C109.031 8.13151 109.391 7.83724 109.812 7.62891C110.234 7.42057 110.711 7.31641 111.242 7.31641C111.805 7.31641 112.276 7.42057 112.656 7.62891C113.036 7.83724 113.349 8.13411 113.594 8.51953C113.839 8.89974 114.029 9.35026 114.164 9.87109C114.305 10.3867 114.414 10.9518 114.492 11.5664V11.9258C114.414 12.5143 114.297 13.0612 114.141 13.5664C113.984 14.0716 113.779 14.5143 113.523 14.8945C113.268 15.2695 112.951 15.5612 112.57 15.7695C112.195 15.9779 111.747 16.082 111.227 16.082C110.706 16.082 110.234 15.9753 109.812 15.7617C109.396 15.5482 109.039 15.2487 108.742 14.8633C108.445 14.4779 108.216 14.0247 108.055 13.5039C107.898 12.9831 107.82 12.4154 107.82 11.8008ZM110.07 11.6367V11.8008C110.07 12.1497 110.104 12.4753 110.172 12.7773C110.24 13.0794 110.344 13.3477 110.484 13.582C110.63 13.8112 110.81 13.9909 111.023 14.1211C111.242 14.2461 111.5 14.3086 111.797 14.3086C112.208 14.3086 112.544 14.2227 112.805 14.0508C113.065 13.8737 113.26 13.6315 113.391 13.3242C113.521 13.0169 113.596 12.6628 113.617 12.2617V11.2383C113.607 10.9102 113.562 10.6159 113.484 10.3555C113.406 10.0898 113.297 9.86328 113.156 9.67578C113.016 9.48828 112.833 9.34245 112.609 9.23828C112.385 9.13411 112.12 9.08203 111.812 9.08203C111.516 9.08203 111.258 9.14974 111.039 9.28516C110.826 9.41536 110.646 9.59505 110.5 9.82422C110.359 10.0534 110.253 10.3242 110.18 10.6367C110.107 10.944 110.07 11.2773 110.07 11.6367ZM119.672 7.47266V15.9258H117.414V7.47266H119.672ZM117.273 5.26953C117.273 4.94141 117.388 4.67057 117.617 4.45703C117.846 4.24349 118.154 4.13672 118.539 4.13672C118.919 4.13672 119.224 4.24349 119.453 4.45703C119.688 4.67057 119.805 4.94141 119.805 5.26953C119.805 5.59766 119.688 5.86849 119.453 6.08203C119.224 6.29557 118.919 6.40234 118.539 6.40234C118.154 6.40234 117.846 6.29557 117.617 6.08203C117.388 5.86849 117.273 5.59766 117.273 5.26953ZM126.094 14.0195V10.2539C126.094 9.98307 126.049 9.7513 125.961 9.55859C125.872 9.36068 125.734 9.20703 125.547 9.09766C125.365 8.98828 125.128 8.93359 124.836 8.93359C124.586 8.93359 124.37 8.97786 124.188 9.06641C124.005 9.14974 123.865 9.27214 123.766 9.43359C123.667 9.58984 123.617 9.77474 123.617 9.98828H121.367C121.367 9.62891 121.451 9.28776 121.617 8.96484C121.784 8.64193 122.026 8.35807 122.344 8.11328C122.661 7.86328 123.039 7.66797 123.477 7.52734C123.919 7.38672 124.414 7.31641 124.961 7.31641C125.617 7.31641 126.201 7.42578 126.711 7.64453C127.221 7.86328 127.622 8.19141 127.914 8.62891C128.211 9.06641 128.359 9.61328 128.359 10.2695V13.8867C128.359 14.3503 128.388 14.7305 128.445 15.0273C128.503 15.319 128.586 15.5742 128.695 15.793V15.9258H126.422C126.312 15.6966 126.229 15.4102 126.172 15.0664C126.12 14.7174 126.094 14.3685 126.094 14.0195ZM126.391 10.7773L126.406 12.0508H125.148C124.852 12.0508 124.594 12.0846 124.375 12.1523C124.156 12.2201 123.977 12.3164 123.836 12.4414C123.695 12.5612 123.591 12.7018 123.523 12.8633C123.461 13.0247 123.43 13.2018 123.43 13.3945C123.43 13.5872 123.474 13.7617 123.562 13.918C123.651 14.069 123.779 14.1888 123.945 14.2773C124.112 14.3607 124.307 14.4023 124.531 14.4023C124.87 14.4023 125.164 14.3346 125.414 14.1992C125.664 14.0638 125.857 13.8971 125.992 13.6992C126.133 13.5013 126.206 13.3138 126.211 13.1367L126.805 14.0898C126.721 14.3034 126.607 14.5247 126.461 14.7539C126.32 14.9831 126.141 15.1992 125.922 15.4023C125.703 15.6003 125.44 15.7643 125.133 15.8945C124.826 16.0195 124.461 16.082 124.039 16.082C123.503 16.082 123.016 15.9753 122.578 15.7617C122.146 15.543 121.802 15.2435 121.547 14.8633C121.297 14.4779 121.172 14.0404 121.172 13.5508C121.172 13.1081 121.255 12.7148 121.422 12.3711C121.589 12.0273 121.833 11.7383 122.156 11.5039C122.484 11.2643 122.893 11.0846 123.383 10.9648C123.872 10.8398 124.44 10.7773 125.086 10.7773H126.391ZM132.297 9.27734V15.9258H130.047V7.47266H132.156L132.297 9.27734ZM131.969 11.4023H131.359C131.359 10.7773 131.44 10.2148 131.602 9.71484C131.763 9.20964 131.99 8.77995 132.281 8.42578C132.573 8.06641 132.919 7.79297 133.32 7.60547C133.727 7.41276 134.18 7.31641 134.68 7.31641C135.076 7.31641 135.438 7.3737 135.766 7.48828C136.094 7.60286 136.375 7.78516 136.609 8.03516C136.849 8.28516 137.031 8.61589 137.156 9.02734C137.286 9.4388 137.352 9.94141 137.352 10.5352V15.9258H135.086V10.5273C135.086 10.1523 135.034 9.86068 134.93 9.65234C134.826 9.44401 134.672 9.29818 134.469 9.21484C134.271 9.1263 134.026 9.08203 133.734 9.08203C133.432 9.08203 133.169 9.14193 132.945 9.26172C132.727 9.38151 132.544 9.54818 132.398 9.76172C132.258 9.97005 132.151 10.2148 132.078 10.4961C132.005 10.7773 131.969 11.0794 131.969 11.4023ZM74.0156 23.5508H78.2578C79.1276 23.5508 79.875 23.681 80.5 23.9414C81.1302 24.2018 81.6146 24.5872 81.9531 25.0977C82.2917 25.6081 82.4609 26.2357 82.4609 26.9805C82.4609 27.5898 82.3568 28.1133 82.1484 28.5508C81.9453 28.9831 81.6562 29.3451 81.2812 29.6367C80.9115 29.9232 80.4766 30.1523 79.9766 30.3242L79.2344 30.7148H75.5469L75.5312 28.8867H78.2734C78.6849 28.8867 79.026 28.8138 79.2969 28.668C79.5677 28.5221 79.7708 28.319 79.9062 28.0586C80.0469 27.7982 80.1172 27.4961 80.1172 27.1523C80.1172 26.7878 80.0495 26.4727 79.9141 26.207C79.7786 25.9414 79.5729 25.7383 79.2969 25.5977C79.0208 25.457 78.6745 25.3867 78.2578 25.3867H76.3594V34.9258H74.0156V23.5508ZM80.375 34.9258L77.7812 29.8555L80.2578 29.8398L82.8828 34.8164V34.9258H80.375ZM88.6875 33.0195V29.2539C88.6875 28.9831 88.6432 28.7513 88.5547 28.5586C88.4661 28.3607 88.3281 28.207 88.1406 28.0977C87.9583 27.9883 87.7214 27.9336 87.4297 27.9336C87.1797 27.9336 86.9635 27.9779 86.7812 28.0664C86.599 28.1497 86.4583 28.2721 86.3594 28.4336C86.2604 28.5898 86.2109 28.7747 86.2109 28.9883H83.9609C83.9609 28.6289 84.0443 28.2878 84.2109 27.9648C84.3776 27.6419 84.6198 27.3581 84.9375 27.1133C85.2552 26.8633 85.6328 26.668 86.0703 26.5273C86.513 26.3867 87.0078 26.3164 87.5547 26.3164C88.2109 26.3164 88.7943 26.4258 89.3047 26.6445C89.8151 26.8633 90.2161 27.1914 90.5078 27.6289C90.8047 28.0664 90.9531 28.6133 90.9531 29.2695V32.8867C90.9531 33.3503 90.9818 33.7305 91.0391 34.0273C91.0964 34.319 91.1797 34.5742 91.2891 34.793V34.9258H89.0156C88.9062 34.6966 88.8229 34.4102 88.7656 34.0664C88.7135 33.7174 88.6875 33.3685 88.6875 33.0195ZM88.9844 29.7773L89 31.0508H87.7422C87.4453 31.0508 87.1875 31.0846 86.9688 31.1523C86.75 31.2201 86.5703 31.3164 86.4297 31.4414C86.2891 31.5612 86.1849 31.7018 86.1172 31.8633C86.0547 32.0247 86.0234 32.2018 86.0234 32.3945C86.0234 32.5872 86.0677 32.7617 86.1562 32.918C86.2448 33.069 86.3724 33.1888 86.5391 33.2773C86.7057 33.3607 86.901 33.4023 87.125 33.4023C87.4635 33.4023 87.7578 33.3346 88.0078 33.1992C88.2578 33.0638 88.4505 32.8971 88.5859 32.6992C88.7266 32.5013 88.7995 32.3138 88.8047 32.1367L89.3984 33.0898C89.3151 33.3034 89.2005 33.5247 89.0547 33.7539C88.9141 33.9831 88.7344 34.1992 88.5156 34.4023C88.2969 34.6003 88.0339 34.7643 87.7266 34.8945C87.4193 35.0195 87.0547 35.082 86.6328 35.082C86.0964 35.082 85.6094 34.9753 85.1719 34.7617C84.7396 34.543 84.3958 34.2435 84.1406 33.8633C83.8906 33.4779 83.7656 33.0404 83.7656 32.5508C83.7656 32.1081 83.849 31.7148 84.0156 31.3711C84.1823 31.0273 84.4271 30.7383 84.75 30.5039C85.0781 30.2643 85.487 30.0846 85.9766 29.9648C86.4661 29.8398 87.0339 29.7773 87.6797 29.7773H88.9844ZM95.0625 26.4727V34.9258H92.8047V26.4727H95.0625ZM92.6641 24.2695C92.6641 23.9414 92.7786 23.6706 93.0078 23.457C93.237 23.2435 93.5443 23.1367 93.9297 23.1367C94.3099 23.1367 94.6146 23.2435 94.8438 23.457C95.0781 23.6706 95.1953 23.9414 95.1953 24.2695C95.1953 24.5977 95.0781 24.8685 94.8438 25.082C94.6146 25.2956 94.3099 25.4023 93.9297 25.4023C93.5443 25.4023 93.237 25.2956 93.0078 25.082C92.7786 24.8685 92.6641 24.5977 92.6641 24.2695ZM99.2969 22.9258V34.9258H97.0391V22.9258H99.2969ZM103.57 32.7383L105.328 26.4727H106.758L106.297 28.9336L104.539 34.9258H103.344L103.57 32.7383ZM102.68 26.4727L103.938 32.7305L104.055 34.9258H102.648L100.508 26.4727H102.68ZM108.367 32.6289L109.594 26.4727H111.773L109.633 34.9258H108.234L108.367 32.6289ZM106.953 26.4727L108.703 32.6914L108.945 34.9258H107.742L105.984 28.9414L105.539 26.4727H106.953ZM117.469 33.0195V29.2539C117.469 28.9831 117.424 28.7513 117.336 28.5586C117.247 28.3607 117.109 28.207 116.922 28.0977C116.74 27.9883 116.503 27.9336 116.211 27.9336C115.961 27.9336 115.745 27.9779 115.562 28.0664C115.38 28.1497 115.24 28.2721 115.141 28.4336C115.042 28.5898 114.992 28.7747 114.992 28.9883H112.742C112.742 28.6289 112.826 28.2878 112.992 27.9648C113.159 27.6419 113.401 27.3581 113.719 27.1133C114.036 26.8633 114.414 26.668 114.852 26.5273C115.294 26.3867 115.789 26.3164 116.336 26.3164C116.992 26.3164 117.576 26.4258 118.086 26.6445C118.596 26.8633 118.997 27.1914 119.289 27.6289C119.586 28.0664 119.734 28.6133 119.734 29.2695V32.8867C119.734 33.3503 119.763 33.7305 119.82 34.0273C119.878 34.319 119.961 34.5742 120.07 34.793V34.9258H117.797C117.688 34.6966 117.604 34.4102 117.547 34.0664C117.495 33.7174 117.469 33.3685 117.469 33.0195ZM117.766 29.7773L117.781 31.0508H116.523C116.227 31.0508 115.969 31.0846 115.75 31.1523C115.531 31.2201 115.352 31.3164 115.211 31.4414C115.07 31.5612 114.966 31.7018 114.898 31.8633C114.836 32.0247 114.805 32.2018 114.805 32.3945C114.805 32.5872 114.849 32.7617 114.938 32.918C115.026 33.069 115.154 33.1888 115.32 33.2773C115.487 33.3607 115.682 33.4023 115.906 33.4023C116.245 33.4023 116.539 33.3346 116.789 33.1992C117.039 33.0638 117.232 32.8971 117.367 32.6992C117.508 32.5013 117.581 32.3138 117.586 32.1367L118.18 33.0898C118.096 33.3034 117.982 33.5247 117.836 33.7539C117.695 33.9831 117.516 34.1992 117.297 34.4023C117.078 34.6003 116.815 34.7643 116.508 34.8945C116.201 35.0195 115.836 35.082 115.414 35.082C114.878 35.082 114.391 34.9753 113.953 34.7617C113.521 34.543 113.177 34.2435 112.922 33.8633C112.672 33.4779 112.547 33.0404 112.547 32.5508C112.547 32.1081 112.63 31.7148 112.797 31.3711C112.964 31.0273 113.208 30.7383 113.531 30.5039C113.859 30.2643 114.268 30.0846 114.758 29.9648C115.247 29.8398 115.815 29.7773 116.461 29.7773H117.766ZM123.852 33.9727L126.094 26.4727H128.508L125.109 36.1992C125.036 36.4128 124.938 36.6419 124.812 36.8867C124.693 37.1315 124.529 37.3633 124.32 37.582C124.117 37.806 123.859 37.9883 123.547 38.1289C123.24 38.2695 122.862 38.3398 122.414 38.3398C122.201 38.3398 122.026 38.3268 121.891 38.3008C121.755 38.2747 121.594 38.2383 121.406 38.1914V36.543C121.464 36.543 121.523 36.543 121.586 36.543C121.648 36.5482 121.708 36.5508 121.766 36.5508C122.062 36.5508 122.305 36.5169 122.492 36.4492C122.68 36.3815 122.831 36.2773 122.945 36.1367C123.06 36.0013 123.151 35.8242 123.219 35.6055L123.852 33.9727ZM122.914 26.4727L124.75 32.5977L125.07 34.9805L123.539 35.1445L120.5 26.4727H122.914ZM138.195 23.5508V34.9258H135.859V23.5508H138.195ZM141.695 23.5508V25.3867H132.414V23.5508H141.695ZM145.266 26.4727V34.9258H143.008V26.4727H145.266ZM142.867 24.2695C142.867 23.9414 142.982 23.6706 143.211 23.457C143.44 23.2435 143.747 23.1367 144.133 23.1367C144.513 23.1367 144.818 23.2435 145.047 23.457C145.281 23.6706 145.398 23.9414 145.398 24.2695C145.398 24.5977 145.281 24.8685 145.047 25.082C144.818 25.2956 144.513 25.4023 144.133 25.4023C143.747 25.4023 143.44 25.2956 143.211 25.082C142.982 24.8685 142.867 24.5977 142.867 24.2695ZM150.617 33.3242C150.893 33.3242 151.138 33.2721 151.352 33.168C151.565 33.0586 151.732 32.9076 151.852 32.7148C151.977 32.5169 152.042 32.2852 152.047 32.0195H154.164C154.159 32.6133 154 33.1419 153.688 33.6055C153.375 34.0638 152.956 34.4258 152.43 34.6914C151.904 34.9518 151.315 35.082 150.664 35.082C150.008 35.082 149.435 34.9727 148.945 34.7539C148.461 34.5352 148.057 34.2331 147.734 33.8477C147.411 33.457 147.169 33.0039 147.008 32.4883C146.846 31.9674 146.766 31.4102 146.766 30.8164V30.5898C146.766 29.9909 146.846 29.4336 147.008 28.918C147.169 28.3971 147.411 27.944 147.734 27.5586C148.057 27.168 148.461 26.8633 148.945 26.6445C149.43 26.4258 149.997 26.3164 150.648 26.3164C151.341 26.3164 151.948 26.4492 152.469 26.7148C152.995 26.9805 153.406 27.3607 153.703 27.8555C154.005 28.3451 154.159 28.9258 154.164 29.5977H152.047C152.042 29.3164 151.982 29.0612 151.867 28.832C151.758 28.6029 151.596 28.4206 151.383 28.2852C151.174 28.1445 150.917 28.0742 150.609 28.0742C150.281 28.0742 150.013 28.1445 149.805 28.2852C149.596 28.4206 149.435 28.6081 149.32 28.8477C149.206 29.082 149.125 29.3503 149.078 29.6523C149.036 29.9492 149.016 30.2617 149.016 30.5898V30.8164C149.016 31.1445 149.036 31.4596 149.078 31.7617C149.12 32.0638 149.198 32.332 149.312 32.5664C149.432 32.8008 149.596 32.9857 149.805 33.1211C150.013 33.2565 150.284 33.3242 150.617 33.3242ZM157.719 22.918V34.9258H155.469V22.918H157.719ZM163.047 26.4727L159.375 30.6602L157.406 32.6523L156.586 31.0273L158.148 29.043L160.344 26.4727H163.047ZM160.711 34.9258L158.211 31.0195L159.766 29.6602L163.305 34.9258H160.711ZM167.75 35.082C167.094 35.082 166.505 34.9779 165.984 34.7695C165.464 34.556 165.021 34.2617 164.656 33.8867C164.297 33.5117 164.021 33.0768 163.828 32.582C163.635 32.082 163.539 31.5508 163.539 30.9883V30.6758C163.539 30.0352 163.63 29.4492 163.812 28.918C163.995 28.3867 164.255 27.9258 164.594 27.5352C164.938 27.1445 165.354 26.8451 165.844 26.6367C166.333 26.4232 166.885 26.3164 167.5 26.3164C168.099 26.3164 168.63 26.4154 169.094 26.6133C169.557 26.8112 169.945 27.0924 170.258 27.457C170.576 27.8216 170.815 28.2591 170.977 28.7695C171.138 29.2747 171.219 29.8372 171.219 30.457V31.3945H164.5V29.8945H169.008V29.7227C169.008 29.4102 168.951 29.1315 168.836 28.8867C168.727 28.6367 168.56 28.4388 168.336 28.293C168.112 28.1471 167.826 28.0742 167.477 28.0742C167.18 28.0742 166.924 28.1393 166.711 28.2695C166.497 28.3997 166.323 28.582 166.188 28.8164C166.057 29.0508 165.958 29.3268 165.891 29.6445C165.828 29.957 165.797 30.3008 165.797 30.6758V30.9883C165.797 31.3268 165.844 31.6393 165.938 31.9258C166.036 32.2122 166.174 32.4596 166.352 32.668C166.534 32.8763 166.753 33.0378 167.008 33.1523C167.268 33.2669 167.562 33.3242 167.891 33.3242C168.297 33.3242 168.674 33.2461 169.023 33.0898C169.378 32.9284 169.682 32.6862 169.938 32.3633L171.031 33.5508C170.854 33.806 170.612 34.0508 170.305 34.2852C170.003 34.5195 169.638 34.7122 169.211 34.8633C168.784 35.0091 168.297 35.082 167.75 35.082ZM176.641 26.4727V28.0664H171.719V26.4727H176.641ZM172.938 24.3867H175.188V32.3789C175.188 32.6237 175.219 32.8112 175.281 32.9414C175.349 33.0716 175.448 33.1628 175.578 33.2148C175.708 33.2617 175.872 33.2852 176.07 33.2852C176.211 33.2852 176.336 33.2799 176.445 33.2695C176.56 33.2539 176.656 33.2383 176.734 33.2227L176.742 34.8789C176.549 34.9414 176.341 34.9909 176.117 35.0273C175.893 35.0638 175.646 35.082 175.375 35.082C174.88 35.082 174.448 35.0013 174.078 34.8398C173.714 34.6732 173.432 34.4076 173.234 34.043C173.036 33.6784 172.938 33.1992 172.938 32.6055V24.3867ZM182.492 32.5898C182.492 32.4284 182.445 32.2826 182.352 32.1523C182.258 32.0221 182.083 31.9023 181.828 31.793C181.578 31.6784 181.216 31.5742 180.742 31.4805C180.315 31.3867 179.917 31.2695 179.547 31.1289C179.182 30.9831 178.865 30.8086 178.594 30.6055C178.328 30.4023 178.12 30.1628 177.969 29.8867C177.818 29.6055 177.742 29.2852 177.742 28.9258C177.742 28.5716 177.818 28.2383 177.969 27.9258C178.125 27.6133 178.346 27.3372 178.633 27.0977C178.924 26.8529 179.279 26.6628 179.695 26.5273C180.117 26.3867 180.591 26.3164 181.117 26.3164C181.852 26.3164 182.482 26.4336 183.008 26.668C183.539 26.9023 183.945 27.2253 184.227 27.6367C184.513 28.043 184.656 28.5065 184.656 29.0273H182.406C182.406 28.8086 182.359 28.6133 182.266 28.4414C182.177 28.2643 182.036 28.1263 181.844 28.0273C181.656 27.9232 181.411 27.8711 181.109 27.8711C180.859 27.8711 180.643 27.9154 180.461 28.0039C180.279 28.0872 180.138 28.2018 180.039 28.3477C179.945 28.4883 179.898 28.6445 179.898 28.8164C179.898 28.9466 179.924 29.0638 179.977 29.168C180.034 29.2669 180.125 29.3581 180.25 29.4414C180.375 29.5247 180.536 29.6029 180.734 29.6758C180.938 29.7435 181.188 29.806 181.484 29.8633C182.094 29.9883 182.638 30.1523 183.117 30.3555C183.596 30.5534 183.977 30.8242 184.258 31.168C184.539 31.5065 184.68 31.9518 184.68 32.5039C184.68 32.8789 184.596 33.2227 184.43 33.5352C184.263 33.8477 184.023 34.1211 183.711 34.3555C183.398 34.5846 183.023 34.7643 182.586 34.8945C182.154 35.0195 181.667 35.082 181.125 35.082C180.339 35.082 179.672 34.9414 179.125 34.6602C178.583 34.3789 178.172 34.0221 177.891 33.5898C177.615 33.1523 177.477 32.7044 177.477 32.2461H179.609C179.62 32.5534 179.698 32.8008 179.844 32.9883C179.995 33.1758 180.185 33.3112 180.414 33.3945C180.648 33.4779 180.901 33.5195 181.172 33.5195C181.464 33.5195 181.706 33.4805 181.898 33.4023C182.091 33.319 182.237 33.2096 182.336 33.0742C182.44 32.9336 182.492 32.7721 182.492 32.5898Z" fill="white"/>
</svg>
