<svg width="186" height="41" viewBox="0 0 186 41" fill="none" xmlns="http://www.w3.org/2000/svg">
<path fill-rule="evenodd" clip-rule="evenodd" d="M7.02633 0.191551C3.47794 0.618331 0.905339 3.16613 0.206679 6.43454C-0.126612 7.99379 0.0433134 10.9959 0.0433134 12.7331L0.0428359 32.282C0.0526141 36.2527 2.44516 39.0254 5.41139 40.0004C7.24885 40.6045 9.43438 40.4208 11.4536 40.4208H50.5517C52.4802 40.4208 55.2029 40.5774 57.039 40.3572C60.524 39.9391 63.1074 37.3244 63.7933 34.1123C64.1265 32.5519 63.9568 29.5518 63.9568 27.8137L63.9573 8.26472C63.9475 4.2936 61.5542 1.52102 58.5885 0.546423C56.7505 -0.0575555 54.566 0.125844 52.5465 0.125844H13.4483C11.5332 0.125844 8.8372 -0.0261911 7.02633 0.191551V0.191551Z" fill="#EC1E25"/>
<path fill-rule="evenodd" clip-rule="evenodd" d="M24.3378 27.0204C24.3419 27.508 24.3429 27.3082 24.3582 27.7902C24.3826 28.0445 24.3663 27.9509 24.3787 28.0185C24.4479 28.3927 24.6447 28.7868 24.9907 29.0688C25.1923 29.2079 25.512 29.4561 26.1574 29.4518C26.5177 29.4293 26.9321 29.3212 27.2924 28.9953C27.544 28.7068 27.7912 28.5043 27.8573 27.7908L27.8761 27.0204C27.8689 26.2924 27.8761 21.4147 27.8761 19.62C28.9977 19.62 31.2828 19.62 32.4791 19.6186C33.2877 19.6177 33.754 19.6661 34.3082 19.1946C34.7457 18.7914 34.9418 18.2982 34.9349 17.8221C34.9257 17.2009 34.57 16.6084 33.9512 16.2826C33.5995 16.1053 33.3549 16.0978 32.972 16.0992C32.5932 16.1004 32.1764 16.1049 31.7649 16.1049C30.2194 16.1042 28.7485 16.1011 27.203 16.1049C26.0581 16.0849 25.5963 16.0367 24.9829 16.5297C24.6812 16.7723 24.4255 17.126 24.3612 17.7503C24.3454 19.1517 24.3296 26.5761 24.3378 27.0204V27.0204Z" fill="white"/>
<path fill-rule="evenodd" clip-rule="evenodd" d="M50.5925 14.1227C52.9433 14.1317 52.9408 10.6132 50.6095 10.6065L42.6022 10.5898C40.2231 10.5863 40.1855 14.1084 42.5716 14.1175C44.6088 14.1308 48.5562 14.1149 50.5925 14.1227V14.1227Z" fill="white"/>
<path fill-rule="evenodd" clip-rule="evenodd" d="M14.9232 14.1387C21.1635 14.1387 25.0775 14.1306 31.3166 14.1407C31.5643 14.1413 31.8161 14.1414 32.0694 14.1414C32.3228 14.1414 32.5781 14.1414 32.8324 14.1414C33.0869 14.1414 33.336 14.1525 33.5858 14.1746C33.8367 14.1965 34.107 14.2697 34.3391 14.3384C34.5887 14.4121 34.745 14.5011 34.9712 14.618C35.1835 14.7276 35.3862 14.8761 35.5508 15.0223C35.8046 15.2477 35.8968 15.3378 36.0234 15.5075C36.1896 15.7298 36.173 15.699 36.287 15.879C36.3918 16.0443 36.5019 16.2683 36.5797 16.4624C36.6578 16.6567 36.6888 16.7617 36.7358 16.9635C36.7829 17.165 36.788 17.233 36.8126 17.4253C36.8382 17.628 36.8287 17.6645 36.8281 17.9404C36.8171 18.115 36.8128 18.1753 36.8039 18.2399C36.796 18.2965 36.7886 18.3549 36.766 18.4827C36.7207 18.7382 36.6893 18.8012 36.6308 18.9879C36.572 19.1745 36.4147 19.4885 36.3431 19.6158C36.2715 19.7431 36.206 19.856 36.1355 19.9346C35.971 20.118 35.9565 20.1525 35.9005 20.2251C35.8446 20.2976 35.765 20.3616 35.7374 20.3953C35.7096 20.429 35.6726 20.4632 35.5923 20.5299C35.5121 20.5968 35.5477 20.5648 35.3342 20.7369C35.2814 20.7746 35.2059 20.8281 35.1434 20.867C35.0878 20.9017 34.9794 20.9773 34.8745 21.0225C34.7659 21.0694 34.7018 21.1221 34.5157 21.186C34.2299 21.2842 34.2002 21.304 33.887 21.3681C33.7875 21.3886 33.6816 21.4032 33.5727 21.4136C33.4638 21.4244 33.3516 21.431 33.2394 21.4357C33.1272 21.4404 33.0146 21.4432 32.9051 21.4459C32.7953 21.4489 32.6881 21.4518 32.587 21.4565C32.041 21.4828 31.6384 21.6508 31.3552 21.8973C31.0722 22.1438 30.9079 22.4689 30.8388 22.8091C30.8043 22.9793 30.7932 23.1533 30.8028 23.3231C30.8125 23.4929 30.8426 23.6587 30.8903 23.8124C30.9379 23.9658 31.0298 24.1139 31.1067 24.2332C31.1837 24.3523 31.2359 24.4326 31.362 24.5271C33.3832 26.0417 35.4809 27.6486 37.5357 29.0839C37.776 29.2518 37.7151 29.224 37.9384 29.315C38.1736 29.4108 38.426 29.4366 38.5633 29.4453C38.817 29.4615 39.0943 29.3891 39.2765 29.3144C39.4617 29.2383 39.6357 29.1248 39.7742 29.0044C39.9128 28.8841 40.0015 28.7805 40.1243 28.5824C40.2414 28.3937 40.319 28.1869 40.3661 27.8958C40.3862 27.7714 40.3659 27.5891 40.3589 27.4701C40.3504 27.3261 40.2921 27.1571 40.2464 27.0281C40.2022 26.9034 40.1162 26.7326 40.0054 26.6057C39.8996 26.4841 39.9389 26.5183 39.7777 26.3612C39.7765 26.3599 39.7013 26.2934 39.6143 26.2327C38.5667 25.5027 37.6018 24.7009 36.579 23.9597C36.5104 23.91 36.6594 23.8745 36.7892 23.8019C36.8298 23.7792 36.935 23.7056 36.999 23.6762C37.0629 23.6467 37.0674 23.6251 37.1455 23.5823C37.2235 23.5394 37.319 23.4613 37.4039 23.4041C37.4888 23.3468 37.5001 23.3361 37.5925 23.2626C37.6798 23.1932 37.7407 23.1437 37.8273 23.0728C37.9138 23.0017 37.9072 23.0047 37.9856 22.9348C38.0658 22.8636 38.1923 22.7397 38.2623 22.6728C38.3342 22.6042 38.3584 22.574 38.4159 22.5148C38.4718 22.4574 38.4984 22.4278 38.55 22.3682C38.605 22.3094 38.618 22.2886 38.6687 22.2315C38.719 22.1749 38.7403 22.1438 38.7879 22.0865C38.8356 22.0296 38.8705 21.9846 38.9135 21.9252C38.9563 21.8658 39.0024 21.8127 39.041 21.7511C39.0794 21.6896 39.0994 21.6727 39.1375 21.6113C39.1787 21.5451 39.239 21.4635 39.274 21.4007C39.3093 21.3378 39.3513 21.2778 39.3858 21.2152C39.4538 21.092 39.4746 21.0555 39.5402 20.9347C39.6039 20.8174 39.6292 20.7768 39.6799 20.6524C39.7314 20.5261 39.7639 20.4848 39.8113 20.353C39.8584 20.222 39.8646 20.2243 39.9149 20.0943C39.9726 19.9515 39.9891 19.8739 40.0401 19.7098C40.0952 19.5331 40.0928 19.5319 40.1378 19.3522C40.1778 19.1921 40.1931 19.1085 40.2199 18.973C40.2704 18.7195 40.3067 18.5145 40.32 18.4276C40.3486 18.2429 40.3467 18.167 40.3507 18.012C40.354 17.8865 40.35 17.6664 40.3403 17.517C40.3305 17.3674 40.3314 17.2091 40.3157 17.0486C40.2998 16.8881 40.2666 16.6526 40.2464 16.4947C40.2265 16.337 40.1972 16.2103 40.1594 16.055C40.1214 15.8997 40.0698 15.7003 40.0222 15.549C39.9746 15.3978 39.8987 15.1889 39.8438 15.0448C39.7892 14.9015 39.7681 14.8587 39.7094 14.7289C39.6487 14.5943 39.6096 14.5275 39.5505 14.4147C39.4946 14.3083 39.4713 14.2629 39.4191 14.1604C39.3666 14.0577 39.3189 13.9957 39.2585 13.8918C39.1979 13.7881 39.1592 13.7527 39.089 13.635C39.0185 13.5171 39.0065 13.5322 38.9423 13.4307C38.8783 13.329 38.848 13.3187 38.7878 13.2305C38.7277 13.1424 38.7246 13.1604 38.6659 13.0825C38.6073 13.0049 38.573 12.9784 38.5132 12.9081C38.4531 12.8376 38.3837 12.7751 38.3136 12.6962C38.2432 12.617 38.1945 12.5789 38.1101 12.4969C38.0259 12.4147 38.0568 12.4393 37.9699 12.3686C37.9483 12.351 37.8706 12.2785 37.8449 12.2596C37.8192 12.2408 37.7527 12.1778 37.7216 12.1573C37.6907 12.1367 37.6353 12.0818 37.5971 12.0582C37.5593 12.035 37.4964 11.9738 37.45 11.9469C37.4033 11.9201 37.3805 11.8921 37.3244 11.8569C37.2536 11.8122 37.2021 11.7711 37.1353 11.7284C37.0622 11.6816 37.0392 11.6628 36.966 11.6208C36.866 11.5636 36.821 11.532 36.7395 11.4889C36.6569 11.4452 36.6266 11.4502 36.5463 11.4034C36.4604 11.3535 36.387 11.3189 36.2941 11.2761C36.1907 11.2283 36.1217 11.1858 36.0277 11.145C35.9422 11.1081 35.8386 11.0674 35.7592 11.0296C35.6006 10.9541 35.535 10.9375 35.2947 10.8606C35.2078 10.8327 35.046 10.7805 34.9114 10.751C34.8098 10.7287 34.7525 10.7114 34.5914 10.681C34.4019 10.6515 34.3577 10.6304 34.0208 10.6231C33.8355 10.6191 33.6122 10.6168 33.4246 10.6164C32.6738 10.6149 31.9362 10.6164 31.2225 10.615C31.2225 10.615 15.3342 10.5951 14.9541 10.6089C14.3582 10.6112 13.8708 10.6017 13.4716 10.6255C13.0577 10.6499 12.739 10.806 12.485 11.0247C11.5988 11.7866 11.633 13.3251 12.7677 13.9301C12.9597 14.0326 13.1979 14.1185 13.4535 14.1322C13.9011 14.1559 14.4157 14.1389 14.9232 14.1387V14.1387Z" fill="white"/>
<path fill-rule="evenodd" clip-rule="evenodd" d="M22.497 27.0026C22.4928 27.4903 22.4917 27.2903 22.4764 27.7725C22.4521 28.0267 22.4683 27.9331 22.4558 28.0008C22.3868 28.375 22.1899 28.769 21.8439 29.051C21.6423 29.1901 21.3228 29.4383 20.6774 29.434C20.3169 29.4115 19.9025 29.3033 19.5423 28.9773C19.2907 28.689 19.0436 28.4865 18.9773 27.7728L18.9587 27.0026C18.9659 26.2746 18.9587 21.397 18.9587 19.6021C17.8368 19.6021 15.552 19.6021 14.3557 19.6008C13.5471 19.5998 13.0805 19.6483 12.5266 19.1769C12.0888 18.7736 11.8929 18.2804 11.8997 17.8042C11.909 17.1831 12.2647 16.5907 12.8835 16.2649C13.2353 16.0875 13.4797 16.0799 13.8627 16.0814C14.2415 16.0826 14.6582 16.0871 15.0699 16.0871C16.6153 16.0863 18.0862 16.0834 19.6317 16.0871C20.7765 16.0671 21.2384 16.0189 21.8517 16.5119C22.1535 16.7545 22.4092 17.1082 22.4736 17.7325C22.4891 19.1338 22.5051 26.5583 22.497 27.0026V27.0026Z" fill="white"/>
<path fill-rule="evenodd" clip-rule="evenodd" d="M50.6401 21.7944C52.9914 21.8035 52.9885 18.285 50.6571 18.2785L43.8486 18.2639C41.4693 18.2606 41.4318 21.7827 43.8179 21.7918C45.8551 21.8052 48.6038 21.7864 50.6401 21.7944Z" fill="white"/>
<path fill-rule="evenodd" clip-rule="evenodd" d="M50.6641 29.4386C53.0154 29.4479 53.0125 25.9293 50.681 25.9226L44.0093 25.9127C41.63 25.9091 41.5925 29.4314 43.9786 29.4406C46.0158 29.4537 48.6275 29.4307 50.6641 29.4386Z" fill="white"/>
<path d="M83.0312 10.0547V14.5625C82.8542 14.776 82.5807 15.0078 82.2109 15.2578C81.8411 15.5026 81.3646 15.7135 80.7812 15.8906C80.1979 16.0677 79.4922 16.1562 78.6641 16.1562C77.9297 16.1562 77.2604 16.0365 76.6562 15.7969C76.0521 15.5521 75.5312 15.1953 75.0938 14.7266C74.6615 14.2578 74.3281 13.6849 74.0938 13.0078C73.8594 12.3255 73.7422 11.5469 73.7422 10.6719V9.96094C73.7422 9.08594 73.8542 8.30729 74.0781 7.625C74.3073 6.94271 74.6328 6.36719 75.0547 5.89844C75.4766 5.42969 75.9792 5.07292 76.5625 4.82812C77.1458 4.58333 77.7943 4.46094 78.5078 4.46094C79.4974 4.46094 80.3099 4.6224 80.9453 4.94531C81.5807 5.26302 82.0651 5.70573 82.3984 6.27344C82.737 6.83594 82.9453 7.48177 83.0234 8.21094H80.75C80.6927 7.82552 80.5833 7.48958 80.4219 7.20312C80.2604 6.91667 80.0286 6.69271 79.7266 6.53125C79.4297 6.36979 79.0443 6.28906 78.5703 6.28906C78.1797 6.28906 77.8307 6.36979 77.5234 6.53125C77.2214 6.6875 76.9661 6.91927 76.7578 7.22656C76.5495 7.53385 76.3906 7.91406 76.2812 8.36719C76.1719 8.82031 76.1172 9.34635 76.1172 9.94531V10.6719C76.1172 11.2656 76.1745 11.7917 76.2891 12.25C76.4036 12.7031 76.5729 13.0859 76.7969 13.3984C77.026 13.7057 77.3073 13.9375 77.6406 14.0938C77.974 14.25 78.362 14.3281 78.8047 14.3281C79.1745 14.3281 79.4818 14.2969 79.7266 14.2344C79.9766 14.1719 80.1771 14.0964 80.3281 14.0078C80.4844 13.9141 80.6042 13.8255 80.6875 13.7422V11.7266H78.5469V10.0547H83.0312ZM88.6719 16.1562C88.0156 16.1562 87.4271 16.0521 86.9062 15.8438C86.3854 15.6302 85.9427 15.3359 85.5781 14.9609C85.2188 14.5859 84.9427 14.151 84.75 13.6562C84.5573 13.1562 84.4609 12.625 84.4609 12.0625V11.75C84.4609 11.1094 84.5521 10.5234 84.7344 9.99219C84.9167 9.46094 85.1771 9 85.5156 8.60938C85.8594 8.21875 86.276 7.91927 86.7656 7.71094C87.2552 7.4974 87.8073 7.39062 88.4219 7.39062C89.0208 7.39062 89.5521 7.48958 90.0156 7.6875C90.4792 7.88542 90.8672 8.16667 91.1797 8.53125C91.4974 8.89583 91.737 9.33333 91.8984 9.84375C92.0599 10.349 92.1406 10.9115 92.1406 11.5312V12.4688H85.4219V10.9688H89.9297V10.7969C89.9297 10.4844 89.8724 10.2057 89.7578 9.96094C89.6484 9.71094 89.4818 9.51302 89.2578 9.36719C89.0339 9.22135 88.7474 9.14844 88.3984 9.14844C88.1016 9.14844 87.8464 9.21354 87.6328 9.34375C87.4193 9.47396 87.2448 9.65625 87.1094 9.89062C86.9792 10.125 86.8802 10.401 86.8125 10.7188C86.75 11.0312 86.7188 11.375 86.7188 11.75V12.0625C86.7188 12.401 86.7656 12.7135 86.8594 13C86.9583 13.2865 87.0964 13.5339 87.2734 13.7422C87.4557 13.9505 87.6745 14.112 87.9297 14.2266C88.1901 14.3411 88.4844 14.3984 88.8125 14.3984C89.2188 14.3984 89.5964 14.3203 89.9453 14.1641C90.2995 14.0026 90.6042 13.7604 90.8594 13.4375L91.9531 14.625C91.776 14.8802 91.5339 15.125 91.2266 15.3594C90.9245 15.5938 90.5599 15.7865 90.1328 15.9375C89.7057 16.0833 89.2188 16.1562 88.6719 16.1562ZM93.0625 11.8594V11.6953C93.0625 11.0755 93.151 10.5052 93.3281 9.98438C93.5052 9.45833 93.763 9.0026 94.1016 8.61719C94.4401 8.23177 94.8568 7.93229 95.3516 7.71875C95.8464 7.5 96.4141 7.39062 97.0547 7.39062C97.6953 7.39062 98.2656 7.5 98.7656 7.71875C99.2656 7.93229 99.6849 8.23177 100.023 8.61719C100.367 9.0026 100.628 9.45833 100.805 9.98438C100.982 10.5052 101.07 11.0755 101.07 11.6953V11.8594C101.07 12.474 100.982 13.0443 100.805 13.5703C100.628 14.0911 100.367 14.5469 100.023 14.9375C99.6849 15.3229 99.2682 15.6224 98.7734 15.8359C98.2786 16.0495 97.7109 16.1562 97.0703 16.1562C96.4297 16.1562 95.8594 16.0495 95.3594 15.8359C94.8646 15.6224 94.4453 15.3229 94.1016 14.9375C93.763 14.5469 93.5052 14.0911 93.3281 13.5703C93.151 13.0443 93.0625 12.474 93.0625 11.8594ZM95.3125 11.6953V11.8594C95.3125 12.2135 95.3438 12.5443 95.4062 12.8516C95.4688 13.1589 95.5677 13.4297 95.7031 13.6641C95.8438 13.8932 96.026 14.0729 96.25 14.2031C96.474 14.3333 96.7474 14.3984 97.0703 14.3984C97.3828 14.3984 97.651 14.3333 97.875 14.2031C98.099 14.0729 98.2786 13.8932 98.4141 13.6641C98.5495 13.4297 98.6484 13.1589 98.7109 12.8516C98.7786 12.5443 98.8125 12.2135 98.8125 11.8594V11.6953C98.8125 11.3516 98.7786 11.0286 98.7109 10.7266C98.6484 10.4193 98.5469 10.1484 98.4062 9.91406C98.2708 9.67448 98.0911 9.48698 97.8672 9.35156C97.6432 9.21615 97.3724 9.14844 97.0547 9.14844C96.737 9.14844 96.4661 9.21615 96.2422 9.35156C96.0234 9.48698 95.8438 9.67448 95.7031 9.91406C95.5677 10.1484 95.4688 10.4193 95.4062 10.7266C95.3438 11.0286 95.3125 11.3516 95.3125 11.6953ZM104.703 9.39062V16H102.453V7.54688H104.57L104.703 9.39062ZM107.25 7.49219L107.211 9.57812C107.102 9.5625 106.969 9.54948 106.812 9.53906C106.661 9.52344 106.523 9.51562 106.398 9.51562C106.081 9.51562 105.805 9.55729 105.57 9.64062C105.341 9.71875 105.148 9.83594 104.992 9.99219C104.841 10.1484 104.727 10.3385 104.648 10.5625C104.576 10.7865 104.534 11.0417 104.523 11.3281L104.07 11.1875C104.07 10.6406 104.125 10.138 104.234 9.67969C104.344 9.21615 104.503 8.8125 104.711 8.46875C104.924 8.125 105.185 7.85938 105.492 7.67188C105.799 7.48438 106.151 7.39062 106.547 7.39062C106.672 7.39062 106.799 7.40104 106.93 7.42188C107.06 7.4375 107.167 7.46094 107.25 7.49219ZM113.508 7.54688H115.547V15.7188C115.547 16.4896 115.375 17.1432 115.031 17.6797C114.693 18.2214 114.219 18.6302 113.609 18.9062C113 19.1875 112.292 19.3281 111.484 19.3281C111.13 19.3281 110.755 19.2812 110.359 19.1875C109.969 19.0938 109.594 18.9479 109.234 18.75C108.88 18.5521 108.583 18.3021 108.344 18L109.336 16.6719C109.596 16.974 109.898 17.2083 110.242 17.375C110.586 17.5469 110.966 17.6328 111.383 17.6328C111.789 17.6328 112.133 17.5573 112.414 17.4062C112.695 17.2604 112.911 17.0443 113.062 16.7578C113.214 16.4766 113.289 16.1354 113.289 15.7344V9.5L113.508 7.54688ZM107.82 11.875V11.7109C107.82 11.0651 107.898 10.4792 108.055 9.95312C108.216 9.42188 108.443 8.96615 108.734 8.58594C109.031 8.20573 109.391 7.91146 109.812 7.70312C110.234 7.49479 110.711 7.39062 111.242 7.39062C111.805 7.39062 112.276 7.49479 112.656 7.70312C113.036 7.91146 113.349 8.20833 113.594 8.59375C113.839 8.97396 114.029 9.42448 114.164 9.94531C114.305 10.4609 114.414 11.026 114.492 11.6406V12C114.414 12.5885 114.297 13.1354 114.141 13.6406C113.984 14.1458 113.779 14.5885 113.523 14.9688C113.268 15.3438 112.951 15.6354 112.57 15.8438C112.195 16.0521 111.747 16.1562 111.227 16.1562C110.706 16.1562 110.234 16.0495 109.812 15.8359C109.396 15.6224 109.039 15.3229 108.742 14.9375C108.445 14.5521 108.216 14.099 108.055 13.5781C107.898 13.0573 107.82 12.4896 107.82 11.875ZM110.07 11.7109V11.875C110.07 12.224 110.104 12.5495 110.172 12.8516C110.24 13.1536 110.344 13.4219 110.484 13.6562C110.63 13.8854 110.81 14.0651 111.023 14.1953C111.242 14.3203 111.5 14.3828 111.797 14.3828C112.208 14.3828 112.544 14.2969 112.805 14.125C113.065 13.9479 113.26 13.7057 113.391 13.3984C113.521 13.0911 113.596 12.737 113.617 12.3359V11.3125C113.607 10.9844 113.562 10.6901 113.484 10.4297C113.406 10.1641 113.297 9.9375 113.156 9.75C113.016 9.5625 112.833 9.41667 112.609 9.3125C112.385 9.20833 112.12 9.15625 111.812 9.15625C111.516 9.15625 111.258 9.22396 111.039 9.35938C110.826 9.48958 110.646 9.66927 110.5 9.89844C110.359 10.1276 110.253 10.3984 110.18 10.7109C110.107 11.0182 110.07 11.3516 110.07 11.7109ZM119.672 7.54688V16H117.414V7.54688H119.672ZM117.273 5.34375C117.273 5.01562 117.388 4.74479 117.617 4.53125C117.846 4.31771 118.154 4.21094 118.539 4.21094C118.919 4.21094 119.224 4.31771 119.453 4.53125C119.688 4.74479 119.805 5.01562 119.805 5.34375C119.805 5.67188 119.688 5.94271 119.453 6.15625C119.224 6.36979 118.919 6.47656 118.539 6.47656C118.154 6.47656 117.846 6.36979 117.617 6.15625C117.388 5.94271 117.273 5.67188 117.273 5.34375ZM126.094 14.0938V10.3281C126.094 10.0573 126.049 9.82552 125.961 9.63281C125.872 9.4349 125.734 9.28125 125.547 9.17188C125.365 9.0625 125.128 9.00781 124.836 9.00781C124.586 9.00781 124.37 9.05208 124.188 9.14062C124.005 9.22396 123.865 9.34635 123.766 9.50781C123.667 9.66406 123.617 9.84896 123.617 10.0625H121.367C121.367 9.70312 121.451 9.36198 121.617 9.03906C121.784 8.71615 122.026 8.43229 122.344 8.1875C122.661 7.9375 123.039 7.74219 123.477 7.60156C123.919 7.46094 124.414 7.39062 124.961 7.39062C125.617 7.39062 126.201 7.5 126.711 7.71875C127.221 7.9375 127.622 8.26562 127.914 8.70312C128.211 9.14062 128.359 9.6875 128.359 10.3438V13.9609C128.359 14.4245 128.388 14.8047 128.445 15.1016C128.503 15.3932 128.586 15.6484 128.695 15.8672V16H126.422C126.312 15.7708 126.229 15.4844 126.172 15.1406C126.12 14.7917 126.094 14.4427 126.094 14.0938ZM126.391 10.8516L126.406 12.125H125.148C124.852 12.125 124.594 12.1589 124.375 12.2266C124.156 12.2943 123.977 12.3906 123.836 12.5156C123.695 12.6354 123.591 12.776 123.523 12.9375C123.461 13.099 123.43 13.276 123.43 13.4688C123.43 13.6615 123.474 13.8359 123.562 13.9922C123.651 14.1432 123.779 14.263 123.945 14.3516C124.112 14.4349 124.307 14.4766 124.531 14.4766C124.87 14.4766 125.164 14.4089 125.414 14.2734C125.664 14.138 125.857 13.9714 125.992 13.7734C126.133 13.5755 126.206 13.388 126.211 13.2109L126.805 14.1641C126.721 14.3776 126.607 14.599 126.461 14.8281C126.32 15.0573 126.141 15.2734 125.922 15.4766C125.703 15.6745 125.44 15.8385 125.133 15.9688C124.826 16.0938 124.461 16.1562 124.039 16.1562C123.503 16.1562 123.016 16.0495 122.578 15.8359C122.146 15.6172 121.802 15.3177 121.547 14.9375C121.297 14.5521 121.172 14.1146 121.172 13.625C121.172 13.1823 121.255 12.7891 121.422 12.4453C121.589 12.1016 121.833 11.8125 122.156 11.5781C122.484 11.3385 122.893 11.1589 123.383 11.0391C123.872 10.9141 124.44 10.8516 125.086 10.8516H126.391ZM132.297 9.35156V16H130.047V7.54688H132.156L132.297 9.35156ZM131.969 11.4766H131.359C131.359 10.8516 131.44 10.2891 131.602 9.78906C131.763 9.28385 131.99 8.85417 132.281 8.5C132.573 8.14062 132.919 7.86719 133.32 7.67969C133.727 7.48698 134.18 7.39062 134.68 7.39062C135.076 7.39062 135.438 7.44792 135.766 7.5625C136.094 7.67708 136.375 7.85938 136.609 8.10938C136.849 8.35938 137.031 8.6901 137.156 9.10156C137.286 9.51302 137.352 10.0156 137.352 10.6094V16H135.086V10.6016C135.086 10.2266 135.034 9.9349 134.93 9.72656C134.826 9.51823 134.672 9.3724 134.469 9.28906C134.271 9.20052 134.026 9.15625 133.734 9.15625C133.432 9.15625 133.169 9.21615 132.945 9.33594C132.727 9.45573 132.544 9.6224 132.398 9.83594C132.258 10.0443 132.151 10.2891 132.078 10.5703C132.005 10.8516 131.969 11.1536 131.969 11.4766ZM74.0156 23.625H78.2578C79.1276 23.625 79.875 23.7552 80.5 24.0156C81.1302 24.276 81.6146 24.6615 81.9531 25.1719C82.2917 25.6823 82.4609 26.3099 82.4609 27.0547C82.4609 27.6641 82.3568 28.1875 82.1484 28.625C81.9453 29.0573 81.6562 29.4193 81.2812 29.7109C80.9115 29.9974 80.4766 30.2266 79.9766 30.3984L79.2344 30.7891H75.5469L75.5312 28.9609H78.2734C78.6849 28.9609 79.026 28.888 79.2969 28.7422C79.5677 28.5964 79.7708 28.3932 79.9062 28.1328C80.0469 27.8724 80.1172 27.5703 80.1172 27.2266C80.1172 26.862 80.0495 26.5469 79.9141 26.2812C79.7786 26.0156 79.5729 25.8125 79.2969 25.6719C79.0208 25.5312 78.6745 25.4609 78.2578 25.4609H76.3594V35H74.0156V23.625ZM80.375 35L77.7812 29.9297L80.2578 29.9141L82.8828 34.8906V35H80.375ZM88.6875 33.0938V29.3281C88.6875 29.0573 88.6432 28.8255 88.5547 28.6328C88.4661 28.4349 88.3281 28.2812 88.1406 28.1719C87.9583 28.0625 87.7214 28.0078 87.4297 28.0078C87.1797 28.0078 86.9635 28.0521 86.7812 28.1406C86.599 28.224 86.4583 28.3464 86.3594 28.5078C86.2604 28.6641 86.2109 28.849 86.2109 29.0625H83.9609C83.9609 28.7031 84.0443 28.362 84.2109 28.0391C84.3776 27.7161 84.6198 27.4323 84.9375 27.1875C85.2552 26.9375 85.6328 26.7422 86.0703 26.6016C86.513 26.4609 87.0078 26.3906 87.5547 26.3906C88.2109 26.3906 88.7943 26.5 89.3047 26.7188C89.8151 26.9375 90.2161 27.2656 90.5078 27.7031C90.8047 28.1406 90.9531 28.6875 90.9531 29.3438V32.9609C90.9531 33.4245 90.9818 33.8047 91.0391 34.1016C91.0964 34.3932 91.1797 34.6484 91.2891 34.8672V35H89.0156C88.9062 34.7708 88.8229 34.4844 88.7656 34.1406C88.7135 33.7917 88.6875 33.4427 88.6875 33.0938ZM88.9844 29.8516L89 31.125H87.7422C87.4453 31.125 87.1875 31.1589 86.9688 31.2266C86.75 31.2943 86.5703 31.3906 86.4297 31.5156C86.2891 31.6354 86.1849 31.776 86.1172 31.9375C86.0547 32.099 86.0234 32.276 86.0234 32.4688C86.0234 32.6615 86.0677 32.8359 86.1562 32.9922C86.2448 33.1432 86.3724 33.263 86.5391 33.3516C86.7057 33.4349 86.901 33.4766 87.125 33.4766C87.4635 33.4766 87.7578 33.4089 88.0078 33.2734C88.2578 33.138 88.4505 32.9714 88.5859 32.7734C88.7266 32.5755 88.7995 32.388 88.8047 32.2109L89.3984 33.1641C89.3151 33.3776 89.2005 33.599 89.0547 33.8281C88.9141 34.0573 88.7344 34.2734 88.5156 34.4766C88.2969 34.6745 88.0339 34.8385 87.7266 34.9688C87.4193 35.0938 87.0547 35.1562 86.6328 35.1562C86.0964 35.1562 85.6094 35.0495 85.1719 34.8359C84.7396 34.6172 84.3958 34.3177 84.1406 33.9375C83.8906 33.5521 83.7656 33.1146 83.7656 32.625C83.7656 32.1823 83.849 31.7891 84.0156 31.4453C84.1823 31.1016 84.4271 30.8125 84.75 30.5781C85.0781 30.3385 85.487 30.1589 85.9766 30.0391C86.4661 29.9141 87.0339 29.8516 87.6797 29.8516H88.9844ZM95.0625 26.5469V35H92.8047V26.5469H95.0625ZM92.6641 24.3438C92.6641 24.0156 92.7786 23.7448 93.0078 23.5312C93.237 23.3177 93.5443 23.2109 93.9297 23.2109C94.3099 23.2109 94.6146 23.3177 94.8438 23.5312C95.0781 23.7448 95.1953 24.0156 95.1953 24.3438C95.1953 24.6719 95.0781 24.9427 94.8438 25.1562C94.6146 25.3698 94.3099 25.4766 93.9297 25.4766C93.5443 25.4766 93.237 25.3698 93.0078 25.1562C92.7786 24.9427 92.6641 24.6719 92.6641 24.3438ZM99.2969 23V35H97.0391V23H99.2969ZM103.57 32.8125L105.328 26.5469H106.758L106.297 29.0078L104.539 35H103.344L103.57 32.8125ZM102.68 26.5469L103.938 32.8047L104.055 35H102.648L100.508 26.5469H102.68ZM108.367 32.7031L109.594 26.5469H111.773L109.633 35H108.234L108.367 32.7031ZM106.953 26.5469L108.703 32.7656L108.945 35H107.742L105.984 29.0156L105.539 26.5469H106.953ZM117.469 33.0938V29.3281C117.469 29.0573 117.424 28.8255 117.336 28.6328C117.247 28.4349 117.109 28.2812 116.922 28.1719C116.74 28.0625 116.503 28.0078 116.211 28.0078C115.961 28.0078 115.745 28.0521 115.562 28.1406C115.38 28.224 115.24 28.3464 115.141 28.5078C115.042 28.6641 114.992 28.849 114.992 29.0625H112.742C112.742 28.7031 112.826 28.362 112.992 28.0391C113.159 27.7161 113.401 27.4323 113.719 27.1875C114.036 26.9375 114.414 26.7422 114.852 26.6016C115.294 26.4609 115.789 26.3906 116.336 26.3906C116.992 26.3906 117.576 26.5 118.086 26.7188C118.596 26.9375 118.997 27.2656 119.289 27.7031C119.586 28.1406 119.734 28.6875 119.734 29.3438V32.9609C119.734 33.4245 119.763 33.8047 119.82 34.1016C119.878 34.3932 119.961 34.6484 120.07 34.8672V35H117.797C117.688 34.7708 117.604 34.4844 117.547 34.1406C117.495 33.7917 117.469 33.4427 117.469 33.0938ZM117.766 29.8516L117.781 31.125H116.523C116.227 31.125 115.969 31.1589 115.75 31.2266C115.531 31.2943 115.352 31.3906 115.211 31.5156C115.07 31.6354 114.966 31.776 114.898 31.9375C114.836 32.099 114.805 32.276 114.805 32.4688C114.805 32.6615 114.849 32.8359 114.938 32.9922C115.026 33.1432 115.154 33.263 115.32 33.3516C115.487 33.4349 115.682 33.4766 115.906 33.4766C116.245 33.4766 116.539 33.4089 116.789 33.2734C117.039 33.138 117.232 32.9714 117.367 32.7734C117.508 32.5755 117.581 32.388 117.586 32.2109L118.18 33.1641C118.096 33.3776 117.982 33.599 117.836 33.8281C117.695 34.0573 117.516 34.2734 117.297 34.4766C117.078 34.6745 116.815 34.8385 116.508 34.9688C116.201 35.0938 115.836 35.1562 115.414 35.1562C114.878 35.1562 114.391 35.0495 113.953 34.8359C113.521 34.6172 113.177 34.3177 112.922 33.9375C112.672 33.5521 112.547 33.1146 112.547 32.625C112.547 32.1823 112.63 31.7891 112.797 31.4453C112.964 31.1016 113.208 30.8125 113.531 30.5781C113.859 30.3385 114.268 30.1589 114.758 30.0391C115.247 29.9141 115.815 29.8516 116.461 29.8516H117.766ZM123.852 34.0469L126.094 26.5469H128.508L125.109 36.2734C125.036 36.487 124.938 36.7161 124.812 36.9609C124.693 37.2057 124.529 37.4375 124.32 37.6562C124.117 37.8802 123.859 38.0625 123.547 38.2031C123.24 38.3438 122.862 38.4141 122.414 38.4141C122.201 38.4141 122.026 38.401 121.891 38.375C121.755 38.349 121.594 38.3125 121.406 38.2656V36.6172C121.464 36.6172 121.523 36.6172 121.586 36.6172C121.648 36.6224 121.708 36.625 121.766 36.625C122.062 36.625 122.305 36.5911 122.492 36.5234C122.68 36.4557 122.831 36.3516 122.945 36.2109C123.06 36.0755 123.151 35.8984 123.219 35.6797L123.852 34.0469ZM122.914 26.5469L124.75 32.6719L125.07 35.0547L123.539 35.2188L120.5 26.5469H122.914ZM138.195 23.625V35H135.859V23.625H138.195ZM141.695 23.625V25.4609H132.414V23.625H141.695ZM145.266 26.5469V35H143.008V26.5469H145.266ZM142.867 24.3438C142.867 24.0156 142.982 23.7448 143.211 23.5312C143.44 23.3177 143.747 23.2109 144.133 23.2109C144.513 23.2109 144.818 23.3177 145.047 23.5312C145.281 23.7448 145.398 24.0156 145.398 24.3438C145.398 24.6719 145.281 24.9427 145.047 25.1562C144.818 25.3698 144.513 25.4766 144.133 25.4766C143.747 25.4766 143.44 25.3698 143.211 25.1562C142.982 24.9427 142.867 24.6719 142.867 24.3438ZM150.617 33.3984C150.893 33.3984 151.138 33.3464 151.352 33.2422C151.565 33.1328 151.732 32.9818 151.852 32.7891C151.977 32.5911 152.042 32.3594 152.047 32.0938H154.164C154.159 32.6875 154 33.2161 153.688 33.6797C153.375 34.138 152.956 34.5 152.43 34.7656C151.904 35.026 151.315 35.1562 150.664 35.1562C150.008 35.1562 149.435 35.0469 148.945 34.8281C148.461 34.6094 148.057 34.3073 147.734 33.9219C147.411 33.5312 147.169 33.0781 147.008 32.5625C146.846 32.0417 146.766 31.4844 146.766 30.8906V30.6641C146.766 30.0651 146.846 29.5078 147.008 28.9922C147.169 28.4714 147.411 28.0182 147.734 27.6328C148.057 27.2422 148.461 26.9375 148.945 26.7188C149.43 26.5 149.997 26.3906 150.648 26.3906C151.341 26.3906 151.948 26.5234 152.469 26.7891C152.995 27.0547 153.406 27.4349 153.703 27.9297C154.005 28.4193 154.159 29 154.164 29.6719H152.047C152.042 29.3906 151.982 29.1354 151.867 28.9062C151.758 28.6771 151.596 28.4948 151.383 28.3594C151.174 28.2188 150.917 28.1484 150.609 28.1484C150.281 28.1484 150.013 28.2188 149.805 28.3594C149.596 28.4948 149.435 28.6823 149.32 28.9219C149.206 29.1562 149.125 29.4245 149.078 29.7266C149.036 30.0234 149.016 30.3359 149.016 30.6641V30.8906C149.016 31.2188 149.036 31.5339 149.078 31.8359C149.12 32.138 149.198 32.4062 149.312 32.6406C149.432 32.875 149.596 33.0599 149.805 33.1953C150.013 33.3307 150.284 33.3984 150.617 33.3984ZM157.719 22.9922V35H155.469V22.9922H157.719ZM163.047 26.5469L159.375 30.7344L157.406 32.7266L156.586 31.1016L158.148 29.1172L160.344 26.5469H163.047ZM160.711 35L158.211 31.0938L159.766 29.7344L163.305 35H160.711ZM167.75 35.1562C167.094 35.1562 166.505 35.0521 165.984 34.8438C165.464 34.6302 165.021 34.3359 164.656 33.9609C164.297 33.5859 164.021 33.151 163.828 32.6562C163.635 32.1562 163.539 31.625 163.539 31.0625V30.75C163.539 30.1094 163.63 29.5234 163.812 28.9922C163.995 28.4609 164.255 28 164.594 27.6094C164.938 27.2188 165.354 26.9193 165.844 26.7109C166.333 26.4974 166.885 26.3906 167.5 26.3906C168.099 26.3906 168.63 26.4896 169.094 26.6875C169.557 26.8854 169.945 27.1667 170.258 27.5312C170.576 27.8958 170.815 28.3333 170.977 28.8438C171.138 29.349 171.219 29.9115 171.219 30.5312V31.4688H164.5V29.9688H169.008V29.7969C169.008 29.4844 168.951 29.2057 168.836 28.9609C168.727 28.7109 168.56 28.513 168.336 28.3672C168.112 28.2214 167.826 28.1484 167.477 28.1484C167.18 28.1484 166.924 28.2135 166.711 28.3438C166.497 28.474 166.323 28.6562 166.188 28.8906C166.057 29.125 165.958 29.401 165.891 29.7188C165.828 30.0312 165.797 30.375 165.797 30.75V31.0625C165.797 31.401 165.844 31.7135 165.938 32C166.036 32.2865 166.174 32.5339 166.352 32.7422C166.534 32.9505 166.753 33.112 167.008 33.2266C167.268 33.3411 167.562 33.3984 167.891 33.3984C168.297 33.3984 168.674 33.3203 169.023 33.1641C169.378 33.0026 169.682 32.7604 169.938 32.4375L171.031 33.625C170.854 33.8802 170.612 34.125 170.305 34.3594C170.003 34.5938 169.638 34.7865 169.211 34.9375C168.784 35.0833 168.297 35.1562 167.75 35.1562ZM176.641 26.5469V28.1406H171.719V26.5469H176.641ZM172.938 24.4609H175.188V32.4531C175.188 32.6979 175.219 32.8854 175.281 33.0156C175.349 33.1458 175.448 33.237 175.578 33.2891C175.708 33.3359 175.872 33.3594 176.07 33.3594C176.211 33.3594 176.336 33.3542 176.445 33.3438C176.56 33.3281 176.656 33.3125 176.734 33.2969L176.742 34.9531C176.549 35.0156 176.341 35.0651 176.117 35.1016C175.893 35.138 175.646 35.1562 175.375 35.1562C174.88 35.1562 174.448 35.0755 174.078 34.9141C173.714 34.7474 173.432 34.4818 173.234 34.1172C173.036 33.7526 172.938 33.2734 172.938 32.6797V24.4609ZM182.492 32.6641C182.492 32.5026 182.445 32.3568 182.352 32.2266C182.258 32.0964 182.083 31.9766 181.828 31.8672C181.578 31.7526 181.216 31.6484 180.742 31.5547C180.315 31.4609 179.917 31.3438 179.547 31.2031C179.182 31.0573 178.865 30.8828 178.594 30.6797C178.328 30.4766 178.12 30.237 177.969 29.9609C177.818 29.6797 177.742 29.3594 177.742 29C177.742 28.6458 177.818 28.3125 177.969 28C178.125 27.6875 178.346 27.4115 178.633 27.1719C178.924 26.9271 179.279 26.737 179.695 26.6016C180.117 26.4609 180.591 26.3906 181.117 26.3906C181.852 26.3906 182.482 26.5078 183.008 26.7422C183.539 26.9766 183.945 27.2995 184.227 27.7109C184.513 28.1172 184.656 28.5807 184.656 29.1016H182.406C182.406 28.8828 182.359 28.6875 182.266 28.5156C182.177 28.3385 182.036 28.2005 181.844 28.1016C181.656 27.9974 181.411 27.9453 181.109 27.9453C180.859 27.9453 180.643 27.9896 180.461 28.0781C180.279 28.1615 180.138 28.276 180.039 28.4219C179.945 28.5625 179.898 28.7188 179.898 28.8906C179.898 29.0208 179.924 29.138 179.977 29.2422C180.034 29.3411 180.125 29.4323 180.25 29.5156C180.375 29.599 180.536 29.6771 180.734 29.75C180.938 29.8177 181.188 29.8802 181.484 29.9375C182.094 30.0625 182.638 30.2266 183.117 30.4297C183.596 30.6276 183.977 30.8984 184.258 31.2422C184.539 31.5807 184.68 32.026 184.68 32.5781C184.68 32.9531 184.596 33.2969 184.43 33.6094C184.263 33.9219 184.023 34.1953 183.711 34.4297C183.398 34.6589 183.023 34.8385 182.586 34.9688C182.154 35.0938 181.667 35.1562 181.125 35.1562C180.339 35.1562 179.672 35.0156 179.125 34.7344C178.583 34.4531 178.172 34.0964 177.891 33.6641C177.615 33.2266 177.477 32.7786 177.477 32.3203H179.609C179.62 32.6276 179.698 32.875 179.844 33.0625C179.995 33.25 180.185 33.3854 180.414 33.4688C180.648 33.5521 180.901 33.5938 181.172 33.5938C181.464 33.5938 181.706 33.5547 181.898 33.4766C182.091 33.3932 182.237 33.2839 182.336 33.1484C182.44 33.0078 182.492 32.8464 182.492 32.6641Z" fill="#222222"/>
</svg>
